<mxfile host="app.diagrams.net" modified="2023-03-03T19:34:51.393Z" agent="5.0 (Windows NT 10.0; Win64; x64) AppleWebKit/537.36 (KHTML, like Gecko) Chrome/110.0.0.0 Safari/537.36" version="20.8.3" etag="VHjkSHmvAWNxKyADmlua" type="github">
  <diagram id="JHIswa4d4_7SKW9wDUkP" name="Страница 1">
    <mxGraphModel dx="1877" dy="1750" grid="1" gridSize="10" guides="1" tooltips="1" connect="1" arrows="1" fold="1" page="1" pageScale="1" pageWidth="827" pageHeight="1169" math="0" shadow="0">
      <root>
        <mxCell id="0" />
        <mxCell id="1" parent="0" />
        <mxCell id="nFPWTdWH6QaG-mGONiPk-1" value="&lt;span style=&quot;margin: 0px; padding: 0px; user-select: text; -webkit-user-drag: none; -webkit-tap-highlight-color: transparent; text-align: left; background-color: rgb(255, 255, 255); font-size: 12pt; line-height: 19.425px; font-family: &amp;quot;Times New Roman&amp;quot;, &amp;quot;Times New Roman_EmbeddedFont&amp;quot;, &amp;quot;Times New Roman_MSFontService&amp;quot;, serif; font-variant-ligatures: none !important;&quot; class=&quot;TextRun SCXW165237662 BCX9&quot; lang=&quot;UK&quot; data-contrast=&quot;auto&quot;&gt;&lt;span style=&quot;margin: 0px; padding: 0px; user-select: text; -webkit-user-drag: none; -webkit-tap-highlight-color: transparent;&quot; class=&quot;NormalTextRun SCXW165237662 BCX9&quot;&gt;Люди, що&lt;/span&gt;&lt;span style=&quot;margin: 0px; padding: 0px; user-select: text; -webkit-user-drag: none; -webkit-tap-highlight-color: transparent;&quot; class=&quot;NormalTextRun SCXW165237662 BCX9&quot;&gt; &lt;/span&gt;&lt;span style=&quot;margin: 0px; padding: 0px; user-select: text; -webkit-user-drag: none; -webkit-tap-highlight-color: transparent;&quot; class=&quot;NormalTextRun SCXW165237662 BCX9&quot;&gt;цікавляться медитаціями&lt;/span&gt;&lt;/span&gt;&lt;span style=&quot;margin: 0px; padding: 0px; user-select: text; -webkit-user-drag: none; -webkit-tap-highlight-color: transparent; text-align: left; background-color: rgb(255, 255, 255); font-size: 12pt; line-height: 19.425px; font-family: &amp;quot;Times New Roman&amp;quot;, &amp;quot;Times New Roman_EmbeddedFont&amp;quot;, &amp;quot;Times New Roman_MSFontService&amp;quot;, serif;&quot; data-ccp-props=&quot;{&amp;quot;201341983&amp;quot;:0,&amp;quot;335559685&amp;quot;:0,&amp;quot;335559740&amp;quot;:259}&quot; class=&quot;EOP SCXW165237662 BCX9&quot;&gt;&amp;nbsp;&lt;/span&gt;" style="ellipse;whiteSpace=wrap;html=1;" vertex="1" parent="1">
          <mxGeometry x="-10" y="100" width="170" height="100" as="geometry" />
        </mxCell>
        <mxCell id="nFPWTdWH6QaG-mGONiPk-2" value="&lt;span style=&quot;accent-color: auto; place-content: normal; place-items: normal; place-self: auto; alignment-baseline: auto; animation: 0s ease 0s 1 normal none running none; app-region: none; appearance: none; aspect-ratio: auto; backdrop-filter: none; backface-visibility: visible; background: none 0% 0% / auto repeat scroll padding-box border-box rgba(0, 0, 0, 0); background-blend-mode: normal; baseline-shift: 0px; border-image: none 100% / 1 / 0 stretch; border-color: rgb(0, 0, 0); border-collapse: collapse; border-end-end-radius: 0px; border-end-start-radius: 0px; border-width: 0px; border-style: none; border-spacing: 0px; border-start-end-radius: 0px; border-start-start-radius: 0px; border-radius: 0px; inset: auto; box-shadow: none; box-sizing: content-box; break-after: auto; break-before: auto; break-inside: auto; buffered-rendering: auto; caption-side: top; caret-color: rgb(0, 0, 0); clear: none; clip: auto; clip-path: none; clip-rule: nonzero; color-interpolation: srgb; color-interpolation-filters: linearrgb; color-rendering: auto; color-scheme: normal; columns: auto; column-fill: balance; gap: normal; column-rule: 0px none rgb(0, 0, 0); column-span: none; contain: none; content: normal; content-visibility: visible; counter-increment: none; counter-reset: none; counter-set: none; cursor: text; cx: 0px; cy: 0px; d: none; direction: ltr; display: inline; dominant-baseline: auto; empty-cells: show; fill: rgb(0, 0, 0); fill-opacity: 1; fill-rule: nonzero; filter: none; flex: 0 1 auto; flex-flow: row nowrap; float: none; flood-color: rgb(0, 0, 0); flood-opacity: 1; font-family: WordVisi_MSFontService, &amp;quot;Times New Roman&amp;quot;, &amp;quot;Times New Roman_EmbeddedFont&amp;quot;, &amp;quot;Times New Roman_MSFontService&amp;quot;, serif; font-feature-settings: normal; font-kerning: none; font-optical-sizing: auto; font-size: 16px; font-stretch: 100%; font-variant-ligatures: no-common-ligatures no-discretionary-ligatures no-historical-ligatures no-contextual; font-variant-numeric: normal; font-variant-east-asian: normal; font-variation-settings: normal; grid-area: auto / auto / auto / auto; grid: auto-flow auto / none; height: auto; hyphens: manual; image-orientation: from-image; image-rendering: auto; inline-size: auto; inset-block: auto; inset-inline: auto; isolation: auto; lighting-color: rgb(255, 255, 255); line-break: auto; line-height: 19.425px; list-style: outside none disc; margin: 0px; marker: none; mask: none; mask-type: luminance; max-height: none; max-width: none; min-height: 0px; min-width: 0px; mix-blend-mode: normal; object-fit: fill; object-position: 50% 50%; offset: none 0px auto 0deg; opacity: 1; order: 0; outline: rgb(0, 0, 0) none 0px; outline-offset: 0px; overflow: visible; overflow-anchor: auto; overflow-clip-margin: 0px; overflow-wrap: break-word; overscroll-behavior-block: auto; overscroll-behavior-inline: auto; overscroll-behavior: auto; padding: 0px; page: auto; paint-order: normal; perspective: none; perspective-origin: 0px 0px; pointer-events: auto; position: static; quotes: auto; r: 0px; resize: none; ruby-position: over; rx: auto; ry: auto; scroll-behavior: auto; scroll-margin-block: 0px; scroll-margin: 0px; scroll-margin-inline: 0px; scroll-padding-block: auto; scroll-padding: auto; scroll-padding-inline: auto; scroll-snap-align: none; scroll-snap-stop: normal; scroll-snap-type: none; scrollbar-gutter: auto; shape-image-threshold: 0; shape-margin: 0px; shape-outside: none; shape-rendering: auto; speak: normal; stop-color: rgb(0, 0, 0); stop-opacity: 1; stroke: none; stroke-dasharray: none; stroke-dashoffset: 0px; stroke-linecap: butt; stroke-linejoin: miter; stroke-miterlimit: 4; stroke-opacity: 1; stroke-width: 1px; tab-size: 8; table-layout: auto; text-align: left; text-align-last: auto; text-anchor: start; text-combine-upright: none; text-decoration-style: solid; text-decoration-color: rgb(0, 0, 0); text-decoration-skip-ink: auto; text-orientation: mixed; text-overflow: clip; text-rendering: auto; text-shadow: none; text-size-adjust: auto; text-underline-offset: auto; text-underline-position: auto; touch-action: auto; transform: none; transform-box: view-box; transform-origin: 0px 0px; transform-style: flat; transition: all 0s ease 0s; unicode-bidi: normal; user-select: text; vector-effect: none; vertical-align: baseline; visibility: visible; border-block-end: 0px none rgb(0, 0, 0); border-block-start: 0px none rgb(0, 0, 0); border-inline-end: 0px none rgb(0, 0, 0); -webkit-border-image: none; border-inline-start: 0px none rgb(0, 0, 0); -webkit-box-align: stretch; -webkit-box-decoration-break: slice; -webkit-box-direction: normal; -webkit-box-flex: 0; -webkit-box-ordinal-group: 1; -webkit-box-orient: horizontal; -webkit-box-pack: start; -webkit-font-smoothing: auto; -webkit-highlight: none; hyphenate-character: auto; -webkit-line-break: auto; -webkit-locale: &amp;quot;UK&amp;quot;; block-size: auto; margin-block: 0px; margin-inline: 0px; -webkit-mask-box-image-source: none; -webkit-mask-box-image-slice: 0 fill; -webkit-mask-box-image-width: auto; -webkit-mask-box-image-outset: 0; -webkit-mask-box-image-repeat: stretch; -webkit-mask: none 0% 0% / auto repeat border-box border-box; -webkit-mask-composite: source-over; max-block-size: none; max-inline-size: none; min-block-size: 0px; min-inline-size: 0px; padding-block: 0px; padding-inline: 0px; -webkit-print-color-adjust: economy; -webkit-rtl-ordering: logical; -webkit-ruby-position: before; -webkit-tap-highlight-color: rgba(0, 0, 0, 0); -webkit-text-combine: none; text-emphasis: none rgb(0, 0, 0); text-emphasis-position: over right; -webkit-text-fill-color: rgb(0, 0, 0); -webkit-text-orientation: vertical-right; -webkit-text-security: none; -webkit-text-stroke-color: rgb(0, 0, 0); -webkit-user-drag: none; -webkit-user-modify: read-only; -webkit-writing-mode: horizontal-tb; width: auto; will-change: auto; word-break: normal; writing-mode: horizontal-tb; x: 0px; y: 0px; z-index: auto; zoom: 1;&quot; class=&quot;TextRun SCXW62366027 BCX9&quot; lang=&quot;UK&quot; data-contrast=&quot;auto&quot;&gt;&lt;span class=&quot;NormalTextRun SCXW62366027 BCX9&quot;&gt;Блогери/медійні персони, які рекламуватимуть продукт&lt;/span&gt;&lt;/span&gt;" style="ellipse;whiteSpace=wrap;html=1;" vertex="1" parent="1">
          <mxGeometry x="144" y="7.5" width="160" height="110" as="geometry" />
        </mxCell>
        <mxCell id="nFPWTdWH6QaG-mGONiPk-3" value="&lt;span style=&quot;margin: 0px; padding: 0px; user-select: text; -webkit-user-drag: none; -webkit-tap-highlight-color: transparent; text-align: left; background-color: rgb(255, 255, 255); font-size: 12pt; line-height: 19.425px; font-family: &amp;quot;Times New Roman&amp;quot;, &amp;quot;Times New Roman_EmbeddedFont&amp;quot;, &amp;quot;Times New Roman_MSFontService&amp;quot;, serif; font-variant-ligatures: none !important;&quot; class=&quot;TextRun SCXW228384979 BCX9&quot; lang=&quot;UK&quot; data-contrast=&quot;auto&quot;&gt;&lt;span style=&quot;margin: 0px; padding: 0px; user-select: text; -webkit-user-drag: none; -webkit-tap-highlight-color: transparent;&quot; class=&quot;NormalTextRun SCXW228384979 BCX9&quot;&gt;Люди, що&lt;/span&gt;&lt;span style=&quot;margin: 0px; padding: 0px; user-select: text; -webkit-user-drag: none; -webkit-tap-highlight-color: transparent;&quot; class=&quot;NormalTextRun SCXW228384979 BCX9&quot;&gt; цікавляться&lt;/span&gt;&lt;span style=&quot;margin: 0px; padding: 0px; user-select: text; -webkit-user-drag: none; -webkit-tap-highlight-color: transparent;&quot; class=&quot;NormalTextRun SCXW228384979 BCX9&quot;&gt; йогою&lt;/span&gt;&lt;/span&gt;&lt;span style=&quot;margin: 0px; padding: 0px; user-select: text; -webkit-user-drag: none; -webkit-tap-highlight-color: transparent; text-align: left; background-color: rgb(255, 255, 255); font-size: 12pt; line-height: 19.425px; font-family: &amp;quot;Times New Roman&amp;quot;, &amp;quot;Times New Roman_EmbeddedFont&amp;quot;, &amp;quot;Times New Roman_MSFontService&amp;quot;, serif;&quot; data-ccp-props=&quot;{&amp;quot;201341983&amp;quot;:0,&amp;quot;335559740&amp;quot;:259}&quot; class=&quot;EOP SCXW228384979 BCX9&quot;&gt;&amp;nbsp;&lt;/span&gt;" style="ellipse;whiteSpace=wrap;html=1;" vertex="1" parent="1">
          <mxGeometry x="510" y="160" width="170" height="100" as="geometry" />
        </mxCell>
        <mxCell id="nFPWTdWH6QaG-mGONiPk-4" value="&lt;span style=&quot;margin: 0px; padding: 0px; user-select: text; -webkit-user-drag: none; -webkit-tap-highlight-color: transparent; font-family: &amp;quot;Times New Roman&amp;quot;, &amp;quot;Times New Roman_EmbeddedFont&amp;quot;, &amp;quot;Times New Roman_MSFontService&amp;quot;, serif; font-size: 16px; font-variant-ligatures: none; text-align: justify; background-color: rgb(255, 255, 255);&quot; class=&quot;NormalTextRun SCXW148370645 BCX9&quot;&gt;Людина у якої проблеми з тривожністю/&lt;/span&gt;&lt;span style=&quot;margin: 0px; padding: 0px; user-select: text; -webkit-user-drag: none; -webkit-tap-highlight-color: transparent; font-family: &amp;quot;Times New Roman&amp;quot;, &amp;quot;Times New Roman_EmbeddedFont&amp;quot;, &amp;quot;Times New Roman_MSFontService&amp;quot;, serif; font-size: 16px; font-variant-ligatures: none; text-align: justify; background-color: rgb(255, 255, 255);&quot; class=&quot;NormalTextRun SCXW148370645 BCX9&quot;&gt;агресією і &lt;/span&gt;&lt;span style=&quot;margin: 0px; padding: 0px; user-select: text; -webkit-user-drag: none; -webkit-tap-highlight-color: transparent; background-repeat: repeat-x; background-position: left bottom; background-image: url(&amp;quot;data:image/gif;base64,R0lGODlhBQAEAJECAP////8AAAAAAAAAACH5BAEAAAIALAAAAAAFAAQAAAIIlGAXCCHrTCgAOw==&amp;quot;); border-bottom: 1px solid transparent; font-family: &amp;quot;Times New Roman&amp;quot;, &amp;quot;Times New Roman_EmbeddedFont&amp;quot;, &amp;quot;Times New Roman_MSFontService&amp;quot;, serif; font-size: 16px; font-variant-ligatures: none; text-align: justify; background-color: rgb(255, 255, 255);&quot; class=&quot;SpellingError SCXW148370645 BCX9&quot;&gt;т.д&lt;/span&gt;" style="ellipse;whiteSpace=wrap;html=1;" vertex="1" parent="1">
          <mxGeometry x="170" y="190" width="146" height="110" as="geometry" />
        </mxCell>
        <mxCell id="nFPWTdWH6QaG-mGONiPk-5" value="&lt;span style=&quot;margin: 0px; padding: 0px; user-select: text; -webkit-user-drag: none; -webkit-tap-highlight-color: transparent; font-family: &amp;quot;Times New Roman&amp;quot;, &amp;quot;Times New Roman_EmbeddedFont&amp;quot;, &amp;quot;Times New Roman_MSFontService&amp;quot;, serif; font-size: 16px; font-variant-ligatures: none; text-align: left; background-color: rgb(255, 255, 255);&quot; class=&quot;NormalTextRun SCXW132150649 BCX9&quot;&gt;Проф. Команда людей, що спеціалізуються на записах медитацій&lt;/span&gt;&lt;span style=&quot;margin: 0px; padding: 0px; user-select: text; -webkit-user-drag: none; -webkit-tap-highlight-color: transparent; font-family: &amp;quot;Times New Roman&amp;quot;, &amp;quot;Times New Roman_EmbeddedFont&amp;quot;, &amp;quot;Times New Roman_MSFontService&amp;quot;, serif; font-size: 16px; font-variant-ligatures: none; text-align: left; background-color: rgb(255, 255, 255);&quot; class=&quot;NormalTextRun SCXW132150649 BCX9&quot;&gt;; &lt;/span&gt;&lt;span style=&quot;margin: 0px; padding: 0px; user-select: text; -webkit-user-drag: none; -webkit-tap-highlight-color: transparent; font-family: &amp;quot;Times New Roman&amp;quot;, &amp;quot;Times New Roman_EmbeddedFont&amp;quot;, &amp;quot;Times New Roman_MSFontService&amp;quot;, serif; font-size: 16px; font-variant-ligatures: none; text-align: left; background-color: rgb(255, 255, 255);&quot; class=&quot;NormalTextRun SCXW132150649 BCX9&quot;&gt;Проф. і&lt;/span&gt;&lt;span style=&quot;margin: 0px; padding: 0px; user-select: text; -webkit-user-drag: none; -webkit-tap-highlight-color: transparent; font-family: &amp;quot;Times New Roman&amp;quot;, &amp;quot;Times New Roman_EmbeddedFont&amp;quot;, &amp;quot;Times New Roman_MSFontService&amp;quot;, serif; font-size: 16px; font-variant-ligatures: none; text-align: left; background-color: rgb(255, 255, 255);&quot; class=&quot;NormalTextRun SCXW132150649 BCX9&quot;&gt;нструк&lt;/span&gt;&lt;span style=&quot;margin: 0px; padding: 0px; user-select: text; -webkit-user-drag: none; -webkit-tap-highlight-color: transparent; font-family: &amp;quot;Times New Roman&amp;quot;, &amp;quot;Times New Roman_EmbeddedFont&amp;quot;, &amp;quot;Times New Roman_MSFontService&amp;quot;, serif; font-size: 16px; font-variant-ligatures: none; text-align: left; background-color: rgb(255, 255, 255);&quot; class=&quot;NormalTextRun SCXW132150649 BCX9&quot;&gt;т&lt;/span&gt;&lt;span style=&quot;margin: 0px; padding: 0px; user-select: text; -webkit-user-drag: none; -webkit-tap-highlight-color: transparent; font-family: &amp;quot;Times New Roman&amp;quot;, &amp;quot;Times New Roman_EmbeddedFont&amp;quot;, &amp;quot;Times New Roman_MSFontService&amp;quot;, serif; font-size: 16px; font-variant-ligatures: none; text-align: left; background-color: rgb(255, 255, 255);&quot; class=&quot;NormalTextRun SCXW132150649 BCX9&quot;&gt;ор з йоги&lt;/span&gt;" style="ellipse;whiteSpace=wrap;html=1;" vertex="1" parent="1">
          <mxGeometry x="304" y="50" width="230" height="120" as="geometry" />
        </mxCell>
        <mxCell id="nFPWTdWH6QaG-mGONiPk-6" value="&lt;span style=&quot;margin: 0px; padding: 0px; user-select: text; -webkit-user-drag: none; -webkit-tap-highlight-color: transparent; text-align: justify; background-color: rgb(255, 255, 255); font-size: 12pt; line-height: 27px; font-family: &amp;quot;Times New Roman&amp;quot;, &amp;quot;Times New Roman_EmbeddedFont&amp;quot;, &amp;quot;Times New Roman_MSFontService&amp;quot;, serif; font-variant-ligatures: none !important;&quot; class=&quot;TextRun SCXW75085188 BCX9&quot; lang=&quot;UK&quot; data-contrast=&quot;auto&quot;&gt;&lt;span style=&quot;margin: 0px; padding: 0px; user-select: text; -webkit-user-drag: none; -webkit-tap-highlight-color: transparent;&quot; class=&quot;NormalTextRun SCXW75085188 BCX9&quot;&gt;Людина у якої проблеми з самоорганізацією&lt;/span&gt;&lt;/span&gt;&lt;span style=&quot;margin: 0px; padding: 0px; user-select: text; -webkit-user-drag: none; -webkit-tap-highlight-color: transparent; text-align: justify; background-color: rgb(255, 255, 255); font-size: 12pt; line-height: 27px; font-family: &amp;quot;Times New Roman&amp;quot;, &amp;quot;Times New Roman_EmbeddedFont&amp;quot;, &amp;quot;Times New Roman_MSFontService&amp;quot;, serif;&quot; data-ccp-props=&quot;{&amp;quot;201341983&amp;quot;:0,&amp;quot;335551550&amp;quot;:6,&amp;quot;335551620&amp;quot;:6,&amp;quot;335559740&amp;quot;:360}&quot; class=&quot;EOP SCXW75085188 BCX9&quot;&gt;&amp;nbsp;&lt;/span&gt;" style="ellipse;whiteSpace=wrap;html=1;" vertex="1" parent="1">
          <mxGeometry x="414" y="340" width="190" height="90" as="geometry" />
        </mxCell>
        <mxCell id="nFPWTdWH6QaG-mGONiPk-7" value="&lt;span style=&quot;accent-color: auto; place-content: normal; place-items: normal; place-self: auto; alignment-baseline: auto; animation: 0s ease 0s 1 normal none running none; app-region: none; appearance: none; aspect-ratio: auto; backdrop-filter: none; backface-visibility: visible; background: none 0% 0% / auto repeat scroll padding-box border-box rgba(0, 0, 0, 0); background-blend-mode: normal; baseline-shift: 0px; border-image: none 100% / 1 / 0 stretch; border-color: rgb(0, 0, 0); border-collapse: collapse; border-end-end-radius: 0px; border-end-start-radius: 0px; border-width: 0px; border-style: none; border-spacing: 0px; border-start-end-radius: 0px; border-start-start-radius: 0px; border-radius: 0px; inset: auto; box-shadow: none; box-sizing: content-box; break-after: auto; break-before: auto; break-inside: auto; buffered-rendering: auto; caption-side: top; caret-color: rgb(0, 0, 0); clear: none; clip: auto; clip-path: none; clip-rule: nonzero; color-interpolation: srgb; color-interpolation-filters: linearrgb; color-rendering: auto; color-scheme: normal; columns: auto; column-fill: balance; gap: normal; column-rule: 0px none rgb(0, 0, 0); column-span: none; contain: none; content: normal; content-visibility: visible; counter-increment: none; counter-reset: none; counter-set: none; cursor: text; cx: 0px; cy: 0px; d: none; direction: ltr; display: inline; dominant-baseline: auto; empty-cells: show; fill: rgb(0, 0, 0); fill-opacity: 1; fill-rule: nonzero; filter: none; flex: 0 1 auto; flex-flow: row nowrap; float: none; flood-color: rgb(0, 0, 0); flood-opacity: 1; font-family: WordVisi_MSFontService, &amp;quot;Times New Roman&amp;quot;, &amp;quot;Times New Roman_EmbeddedFont&amp;quot;, &amp;quot;Times New Roman_MSFontService&amp;quot;, serif; font-feature-settings: normal; font-kerning: none; font-optical-sizing: auto; font-size: 16px; font-stretch: 100%; font-variant-ligatures: no-common-ligatures no-discretionary-ligatures no-historical-ligatures no-contextual; font-variant-numeric: normal; font-variant-east-asian: normal; font-variation-settings: normal; grid-area: auto / auto / auto / auto; grid: auto-flow auto / none; height: auto; hyphens: manual; image-orientation: from-image; image-rendering: auto; inline-size: auto; inset-block: auto; inset-inline: auto; isolation: auto; lighting-color: rgb(255, 255, 255); line-break: auto; line-height: 27px; list-style: outside none disc; margin: 0px; marker: none; mask: none; mask-type: luminance; max-height: none; max-width: none; min-height: 0px; min-width: 0px; mix-blend-mode: normal; object-fit: fill; object-position: 50% 50%; offset: none 0px auto 0deg; opacity: 1; order: 0; outline: rgb(0, 0, 0) none 0px; outline-offset: 0px; overflow: visible; overflow-anchor: auto; overflow-clip-margin: 0px; overflow-wrap: break-word; overscroll-behavior-block: auto; overscroll-behavior-inline: auto; overscroll-behavior: auto; padding: 0px; page: auto; paint-order: normal; perspective: none; perspective-origin: 0px 0px; pointer-events: auto; position: static; quotes: auto; r: 0px; resize: none; ruby-position: over; rx: auto; ry: auto; scroll-behavior: auto; scroll-margin-block: 0px; scroll-margin: 0px; scroll-margin-inline: 0px; scroll-padding-block: auto; scroll-padding: auto; scroll-padding-inline: auto; scroll-snap-align: none; scroll-snap-stop: normal; scroll-snap-type: none; scrollbar-gutter: auto; shape-image-threshold: 0; shape-margin: 0px; shape-outside: none; shape-rendering: auto; speak: normal; stop-color: rgb(0, 0, 0); stop-opacity: 1; stroke: none; stroke-dasharray: none; stroke-dashoffset: 0px; stroke-linecap: butt; stroke-linejoin: miter; stroke-miterlimit: 4; stroke-opacity: 1; stroke-width: 1px; tab-size: 8; table-layout: auto; text-align: justify; text-align-last: auto; text-anchor: start; text-combine-upright: none; text-decoration-style: solid; text-decoration-color: rgb(0, 0, 0); text-decoration-skip-ink: auto; text-orientation: mixed; text-overflow: clip; text-rendering: auto; text-shadow: none; text-size-adjust: auto; text-underline-offset: auto; text-underline-position: auto; touch-action: auto; transform: none; transform-box: view-box; transform-origin: 0px 0px; transform-style: flat; transition: all 0s ease 0s; unicode-bidi: normal; user-select: text; vector-effect: none; vertical-align: baseline; visibility: visible; border-block-end: 0px none rgb(0, 0, 0); border-block-start: 0px none rgb(0, 0, 0); border-inline-end: 0px none rgb(0, 0, 0); -webkit-border-image: none; border-inline-start: 0px none rgb(0, 0, 0); -webkit-box-align: stretch; -webkit-box-decoration-break: slice; -webkit-box-direction: normal; -webkit-box-flex: 0; -webkit-box-ordinal-group: 1; -webkit-box-orient: horizontal; -webkit-box-pack: start; -webkit-font-smoothing: auto; -webkit-highlight: none; hyphenate-character: auto; -webkit-line-break: auto; -webkit-locale: &amp;quot;UK&amp;quot;; block-size: auto; margin-block: 0px; margin-inline: 0px; -webkit-mask-box-image-source: none; -webkit-mask-box-image-slice: 0 fill; -webkit-mask-box-image-width: auto; -webkit-mask-box-image-outset: 0; -webkit-mask-box-image-repeat: stretch; -webkit-mask: none 0% 0% / auto repeat border-box border-box; -webkit-mask-composite: source-over; max-block-size: none; max-inline-size: none; min-block-size: 0px; min-inline-size: 0px; padding-block: 0px; padding-inline: 0px; -webkit-print-color-adjust: economy; -webkit-rtl-ordering: logical; -webkit-ruby-position: before; -webkit-tap-highlight-color: rgba(0, 0, 0, 0); -webkit-text-combine: none; text-emphasis: none rgb(0, 0, 0); text-emphasis-position: over right; -webkit-text-fill-color: rgb(0, 0, 0); -webkit-text-orientation: vertical-right; -webkit-text-security: none; -webkit-text-stroke-color: rgb(0, 0, 0); -webkit-user-drag: none; -webkit-user-modify: read-only; -webkit-writing-mode: horizontal-tb; width: auto; will-change: auto; word-break: normal; writing-mode: horizontal-tb; x: 0px; y: 0px; z-index: auto; zoom: 1;&quot; class=&quot;TextRun SCXW91618876 BCX9&quot; lang=&quot;UK&quot; data-contrast=&quot;auto&quot;&gt;&lt;span class=&quot;NormalTextRun SCXW91618876 BCX9&quot;&gt;Людина у якої проблема безконтрольного сидіння у телефоні&lt;/span&gt;&lt;/span&gt;" style="ellipse;whiteSpace=wrap;html=1;" vertex="1" parent="1">
          <mxGeometry x="-110" y="260" width="200" height="110" as="geometry" />
        </mxCell>
        <mxCell id="nFPWTdWH6QaG-mGONiPk-8" value="&lt;span style=&quot;margin: 0px; padding: 0px; user-select: text; -webkit-user-drag: none; -webkit-tap-highlight-color: transparent; text-align: left; background-color: rgb(255, 255, 255); font-size: 12pt; line-height: 19.425px; font-family: &amp;quot;Times New Roman&amp;quot;, &amp;quot;Times New Roman_EmbeddedFont&amp;quot;, &amp;quot;Times New Roman_MSFontService&amp;quot;, serif; font-variant-ligatures: none !important;&quot; class=&quot;TextRun SCXW197743315 BCX9&quot; lang=&quot;UK&quot; data-contrast=&quot;auto&quot;&gt;&lt;span style=&quot;margin: 0px; padding: 0px; user-select: text; -webkit-user-drag: none; -webkit-tap-highlight-color: transparent;&quot; class=&quot;NormalTextRun SCXW197743315 BCX9&quot;&gt;Плей маркет та інші площадки для публікації додатку&lt;/span&gt;&lt;/span&gt;&lt;span style=&quot;margin: 0px; padding: 0px; user-select: text; -webkit-user-drag: none; -webkit-tap-highlight-color: transparent; text-align: left; background-color: rgb(255, 255, 255); font-size: 12pt; line-height: 19.425px; font-family: &amp;quot;Times New Roman&amp;quot;, &amp;quot;Times New Roman_EmbeddedFont&amp;quot;, &amp;quot;Times New Roman_MSFontService&amp;quot;, serif;&quot; data-ccp-props=&quot;{&amp;quot;201341983&amp;quot;:0,&amp;quot;335559740&amp;quot;:259}&quot; class=&quot;EOP SCXW197743315 BCX9&quot;&gt;&amp;nbsp;&lt;/span&gt;" style="ellipse;whiteSpace=wrap;html=1;" vertex="1" parent="1">
          <mxGeometry x="245" y="400" width="180" height="90" as="geometry" />
        </mxCell>
        <mxCell id="nFPWTdWH6QaG-mGONiPk-10" value="базові курси&lt;br style=&quot;font-size: 16px;&quot;&gt;медитації" style="ellipse;whiteSpace=wrap;html=1;fillColor=#bac8d3;strokeColor=#23445d;strokeWidth=1;fontSize=16;" vertex="1" parent="1">
          <mxGeometry x="-40" y="30" width="130" height="65" as="geometry" />
        </mxCell>
        <mxCell id="nFPWTdWH6QaG-mGONiPk-11" value="курси&lt;br style=&quot;font-size: 16px;&quot;&gt;медитації для профі" style="ellipse;whiteSpace=wrap;html=1;fillColor=#bac8d3;strokeColor=#23445d;strokeWidth=1;fontSize=16;" vertex="1" parent="1">
          <mxGeometry x="-160" y="117.5" width="130" height="65" as="geometry" />
        </mxCell>
        <mxCell id="nFPWTdWH6QaG-mGONiPk-12" value="базові курси&lt;br style=&quot;font-size: 16px;&quot;&gt;з йоги" style="ellipse;whiteSpace=wrap;html=1;fillColor=#bac8d3;strokeColor=#23445d;strokeWidth=1;fontSize=16;" vertex="1" parent="1">
          <mxGeometry x="550" y="70" width="130" height="65" as="geometry" />
        </mxCell>
        <mxCell id="nFPWTdWH6QaG-mGONiPk-13" value="курси&lt;br style=&quot;font-size: 16px;&quot;&gt;з йоги для профі" style="ellipse;whiteSpace=wrap;html=1;fillColor=#bac8d3;strokeColor=#23445d;strokeWidth=1;fontSize=16;" vertex="1" parent="1">
          <mxGeometry x="680" y="135" width="160" height="65" as="geometry" />
        </mxCell>
        <mxCell id="nFPWTdWH6QaG-mGONiPk-14" value="Система самостійного підбору/створення програми відповідно до обраного рівня підготовки." style="ellipse;whiteSpace=wrap;html=1;fillColor=#bac8d3;strokeColor=#23445d;strokeWidth=1;fontSize=16;" vertex="1" parent="1">
          <mxGeometry x="580" y="250" width="276" height="120" as="geometry" />
        </mxCell>
        <mxCell id="nFPWTdWH6QaG-mGONiPk-16" value="успішна реалізації проекту" style="ellipse;whiteSpace=wrap;html=1;fillColor=#bac8d3;strokeColor=#23445d;strokeWidth=1;fontSize=16;" vertex="1" parent="1">
          <mxGeometry x="429" y="-10" width="160" height="65" as="geometry" />
        </mxCell>
        <mxCell id="nFPWTdWH6QaG-mGONiPk-17" value="гроші" style="ellipse;whiteSpace=wrap;html=1;fillColor=#bac8d3;strokeColor=#23445d;strokeWidth=1;fontSize=16;" vertex="1" parent="1">
          <mxGeometry x="294" y="-20" width="120" height="65" as="geometry" />
        </mxCell>
        <mxCell id="nFPWTdWH6QaG-mGONiPk-19" value="&lt;span style=&quot;text-align: left;&quot;&gt;дотримання правил спільноти&lt;/span&gt;" style="ellipse;whiteSpace=wrap;html=1;fillColor=#bac8d3;strokeColor=#23445d;strokeWidth=1;fontSize=16;" vertex="1" parent="1">
          <mxGeometry x="360" y="490" width="160" height="65" as="geometry" />
        </mxCell>
        <mxCell id="nFPWTdWH6QaG-mGONiPk-21" value="&lt;span style=&quot;text-align: left;&quot;&gt;висока якість продукту, що б не було конфлікті з аудиторією&lt;/span&gt;" style="ellipse;whiteSpace=wrap;html=1;fillColor=#bac8d3;strokeColor=#23445d;strokeWidth=1;fontSize=16;" vertex="1" parent="1">
          <mxGeometry x="54" y="-90" width="250" height="90" as="geometry" />
        </mxCell>
      </root>
    </mxGraphModel>
  </diagram>
</mxfile>
